<?xml version="1.0" encoding="UTF-8"?>
<svg xmlns="http://www.w3.org/2000/svg" xmlns:xlink="http://www.w3.org/1999/xlink" width="30pt" height="30pt" viewBox="0 0 30 30" version="1.1">
<g id="surface1">
<path style=" stroke:none;fill-rule:evenodd;fill:rgb(0%,62.745098%,100%);fill-opacity:1;" d="M 30 15 C 30 23.285156 23.285156 30 15 30 C 6.714844 30 0 23.285156 0 15 C 0 6.714844 6.714844 0 15 0 C 23.285156 0 30 6.714844 30 15 Z M 30 15 "/>
<path style=" stroke:none;fill-rule:evenodd;fill:rgb(100%,100%,100%);fill-opacity:1;" d="M 20.292969 8.304688 L 18.128906 8.304688 C 17.527344 8.304688 17.035156 8.792969 17.035156 9.402344 L 17.035156 21.203125 C 17.035156 21.8125 17.527344 22.304688 18.128906 22.304688 L 20.292969 22.304688 C 20.902344 22.304688 21.386719 21.8125 21.386719 21.203125 L 21.386719 9.402344 C 21.394531 8.796875 20.902344 8.304688 20.292969 8.304688 Z M 20.292969 8.304688 "/>
<path style=" stroke:none;fill-rule:evenodd;fill:rgb(100%,100%,100%);fill-opacity:1;" d="M 12.097656 8.304688 L 9.933594 8.304688 C 9.332031 8.304688 8.839844 8.792969 8.839844 9.402344 L 8.839844 21.203125 C 8.839844 21.8125 9.332031 22.304688 9.933594 22.304688 L 12.097656 22.304688 C 12.707031 22.304688 13.195312 21.8125 13.195312 21.203125 L 13.195312 9.402344 C 13.195312 8.796875 12.707031 8.304688 12.097656 8.304688 Z M 12.097656 8.304688 "/>
</g>
</svg>
