<?xml version="1.0" encoding="UTF-8"?>
<svg xmlns="http://www.w3.org/2000/svg" xmlns:xlink="http://www.w3.org/1999/xlink" width="30pt" height="30pt" viewBox="0 0 30 30" version="1.1">
<g id="surface1">
<path style=" stroke:none;fill-rule:evenodd;fill:rgb(0%,62.745098%,100%);fill-opacity:1;" d="M 30 15 C 30 23.285156 23.285156 30 15 30 C 6.714844 30 0 23.285156 0 15 C 0 6.714844 6.714844 0 15 0 C 23.285156 0 30 6.714844 30 15 Z M 30 15 "/>
<path style=" stroke:none;fill-rule:evenodd;fill:rgb(100%,100%,100%);fill-opacity:1;" d="M 21.8125 14.902344 L 11.824219 8.714844 C 11.09375 8.234375 10.5 8.585938 10.5 9.496094 L 10.5 21.503906 C 10.5 22.410156 11.09375 22.761719 11.824219 22.285156 L 21.8125 16.097656 C 21.8125 16.097656 22.167969 15.847656 22.167969 15.5 C 22.167969 15.148438 21.8125 14.902344 21.8125 14.902344 Z M 21.8125 14.902344 "/>
</g>
</svg>
